<?xml version="1.0" encoding="utf-8"?>
<!-- Generator: Adobe Illustrator 19.0.0, SVG Export Plug-In . SVG Version: 6.00 Build 0)  -->
<svg version="1.1" id="Layer_1" xmlns="http://www.w3.org/2000/svg" xmlns:xlink="http://www.w3.org/1999/xlink" x="0px" y="0px"
	 viewBox="0 0 30 30" style="enable-background:new 0 0 30 30;" xml:space="preserve">
<style type="text/css">
	.st0{fill:#4C76BE;}
	.st1{fill-rule:evenodd;clip-rule:evenodd;fill:#4C76BE;}
</style>
<g id="XMLID_345_">
	<g id="XMLID_5_">
		<path id="XMLID_6_" class="st0" d="M26.9,10.9c1.6,4.9-0.2,10.4-4.4,13.4c-4.2,3.1-9.9,3.1-14.1,0c-4.2-3.1-6-8.5-4.4-13.4
			C5.7,6,10.3,2.6,15.5,2.6C20.7,2.6,25.3,6,26.9,10.9z M15.5,3.7c-4.7,0-8.9,3-10.4,7.5c-1.5,4.5,0.1,9.4,4,12.2
			c3.8,2.8,9,2.8,12.8,0c3.8-2.8,5.4-7.7,4-12.2C24.4,6.7,20.2,3.7,15.5,3.7z"/>
	</g>
	<path id="XMLID_7_" class="st1" d="M17.1,11.2c0.3,0,0.6,0,1,0c0,0,0.1,0,0.1,0V9.5c-0.2,0-0.4,0-0.5-0.1c-0.3,0-0.7,0-1,0
		c-0.5,0-1,0.1-1.4,0.4c-0.5,0.3-0.7,0.8-0.8,1.4c0,0.2-0.1,0.5-0.1,0.7c0,0.4,0,0.8,0,1.1v0.1h-1.6v1.9h1.6v4.7h2v-4.7h1.6
		c0.1-0.6,0.2-1.3,0.2-1.9c-0.1,0-0.2,0-0.4,0c-0.5,0-1.5,0-1.5,0s0-0.9,0-1.3C16.4,11.3,16.7,11.2,17.1,11.2z"/>
</g>
</svg>
