<?xml version="1.0" encoding="utf-8"?>
<!-- Generator: Adobe Illustrator 19.0.0, SVG Export Plug-In . SVG Version: 6.00 Build 0)  -->
<svg version="1.1" id="Layer_1" xmlns="http://www.w3.org/2000/svg" xmlns:xlink="http://www.w3.org/1999/xlink" x="0px" y="0px"
	 viewBox="0 0 50 50" style="enable-background:new 0 0 50 50;" xml:space="preserve">
<style type="text/css">
	.st0{fill:#FC5345;}
</style>
<g id="XMLID_345_">
	<g id="XMLID_35_">
		<path id="XMLID_36_" class="st0" d="M44.9,18.7c2.7,8.4-0.3,17.7-7.4,22.9c-7.2,5.2-16.9,5.2-24.1,0C6.2,36.4,3.2,27.1,5.9,18.7
			C8.7,10.2,16.5,4.5,25.4,4.5S42.1,10.2,44.9,18.7z M25.4,6.4c-8.1,0-15.2,5.2-17.7,12.9c-2.5,7.7,0.2,16.1,6.8,20.8
			c6.5,4.7,15.4,4.7,21.9,0c6.5-4.7,9.3-13.2,6.8-20.8C40.6,11.6,33.5,6.4,25.4,6.4z"/>
	</g>
	<g id="XMLID_37_">
		<path id="XMLID_38_" class="st0" d="M22.6,23.8c0,0,0,0.1,0,0.1c0,0.9,0,2.7,0,2.7s3.6,0,3.8,0c0,0.3-0.3,1.4-1.4,2.1
			c-0.6,0.4-1.3,0.6-2.1,0.7c-0.5,0-1,0-1.5-0.2c-1.6-0.5-2.8-1.9-2.9-3.7c0-0.4,0-0.9,0.1-1.3c0.5-2.1,2.4-3.6,4.6-3.3
			c1,0.1,1.6,0.6,2.1,1c0.7-0.7,1.4-1.4,2.1-2.1c-0.2-0.1-0.6-0.5-1.3-0.9c-1-0.6-2.2-0.9-3.4-0.9c-0.2,0-0.5,0-0.7,0
			c-0.4,0-0.8,0.1-1.2,0.2c-1.5,0.4-2.8,1.2-3.8,2.4c-1,1.2-1.5,2.5-1.6,4c0,0.6,0,1.3,0.1,1.9c0.4,1.8,1.3,3.2,2.8,4.2
			c1.1,0.8,2.4,1.3,3.8,1.3c0.8,0,1.6,0,2.3-0.2c1.4-0.4,2.6-1.1,3.5-2.3c1.3-1.7,1.6-3.9,1.2-6C27,23.8,24.8,23.8,22.6,23.8z"/>
		<polygon id="XMLID_39_" class="st0" points="37.8,23.9 35.4,23.9 35.4,21.5 35.4,21.4 35.3,21.4 33.5,21.4 33.4,21.4 33.4,21.5 
			33.4,23.9 31,23.9 31,23.9 31,23.9 31,25.7 31,25.8 31,25.8 33.4,25.8 33.4,28.2 33.4,28.3 33.5,28.3 35.3,28.3 35.4,28.3 
			35.4,28.2 35.4,25.8 37.8,25.8 37.8,25.8 37.8,25.7 37.8,23.9 37.8,23.9 		"/>
	</g>
</g>
</svg>
