<?xml version="1.0" encoding="utf-8"?>
<!-- Generator: Adobe Illustrator 19.0.0, SVG Export Plug-In . SVG Version: 6.00 Build 0)  -->
<svg version="1.1" id="Layer_1" xmlns="http://www.w3.org/2000/svg" xmlns:xlink="http://www.w3.org/1999/xlink" x="0px" y="0px"
	 viewBox="0 0 30 30" style="enable-background:new 0 0 30 30;" xml:space="preserve">
<style type="text/css">
	.st0{fill:#914D9A;}
	.st1{fill:#8A509D;}
	.st2{fill:#A54092;}
	.st3{fill:#AF3B8E;}
	.st4{fill:#F1A455;}
	.st5{fill:#EC5A40;}
	.st6{fill:#E25051;}
	.st7{fill:#E75449;}
	.st8{fill:#F0974F;}
	.st9{fill:#DB495C;}
	.st10{fill:#C13084;}
	.st11{fill:#B8358A;}
	.st12{fill:#C7357D;}
	.st13{fill:#CB3974;}
	.st14{fill:#D03D6E;}
	.st15{fill:#EF6B41;}
	.st16{fill:#D44267;}
	.st17{fill:#F0894B;}
	.st18{fill:#EF7B46;}
	.st19{fill:#F9C56B;}
	.st20{fill:#F5B560;}
	.st21{fill:#F8BE66;}
	.st22{fill:#F3AB59;}
	.st23{fill:#954A98;}
	.st24{fill:#8457A1;}
	.st25{fill:#9C4595;}
	.st26{fill:#D74664;}
	.st27{fill:#E04E54;}
</style>
<g id="XMLID_1_">
	<g id="XMLID_4_">
		<path id="XMLID_94_" class="st0" d="M13.6,3.6c0.2-0.1,0.4,0,0.5-0.1c0.4,0,0.7,0,1.1,0c0,0.1,0.1,0.1,0.2,0.1
			c0.3,0.1,0.7,0.2,1,0.4c1.5,0.6,3,1.3,4.4,2.2c1,0.6,2,1.3,2.8,2.1c0.6,0.5,1.1,1,1.6,1.6c0.1,0.1,0.1,0.1,0.2,0.1
			c0.2,0.4,0.4,0.9,0.5,1.3c-0.1,0-0.2-0.1-0.3-0.2c-0.2-0.3-0.5-0.6-0.7-0.8c-0.9-0.9-1.7-1.8-2.7-2.5c-0.1-0.1-0.2-0.2-0.4-0.1
			c-1-0.9-2.2-1.6-3.5-2.1c0-0.1-0.1-0.1-0.2-0.2c-1.4-0.7-2.8-1.2-4.3-1.6C13.8,3.8,13.7,3.8,13.6,3.6z"/>
		<path id="XMLID_93_" class="st1" d="M25.4,10c-0.1,0-0.2,0-0.2-0.1c-0.5-0.6-1.1-1.1-1.6-1.6c-0.9-0.8-1.8-1.5-2.8-2.1
			c-1.4-0.9-2.8-1.6-4.4-2.2c-0.3-0.1-0.7-0.2-1-0.4c-0.1,0-0.1,0-0.2-0.1c0.2,0,0.5,0,0.7,0c0.1,0.1,0.3,0.1,0.5,0.1
			c0.4,0.1,0.9,0.2,1.3,0.2C17.8,4,17.9,4,17.9,4c0.8,0.3,1.5,0.7,2.3,1.2c1.2,0.7,2.3,1.5,3.3,2.3c0.2,0.1,0.3,0.3,0.5,0.4
			C24.6,8.5,25,9.2,25.4,10z"/>
		<path id="XMLID_92_" class="st2" d="M26.5,14c0,0,0,0.1,0.1,0.1c0,0.4,0,0.8,0,1.2c-0.1-0.1-0.2-0.2-0.3-0.3
			c-0.3-0.6-0.7-1.2-1.1-1.7c-0.1-0.1-0.1-0.2-0.2-0.1c-0.1-0.5-0.3-1.1-0.4-1.6c0.1,0,0.2,0.1,0.3,0.2c0.5,0.7,1.1,1.4,1.5,2.1
			C26.4,13.9,26.4,14,26.5,14z"/>
		<path id="XMLID_91_" class="st3" d="M25,13.2c0.1,0,0.2,0.1,0.2,0.1c0.4,0.6,0.8,1.1,1.1,1.7c0.1,0.1,0.1,0.2,0.3,0.3
			c0,0.2,0,0.4,0,0.5c-0.1,0.2,0,0.5-0.1,0.7c-0.1,0-0.1-0.1-0.2-0.2c-0.3-0.6-0.6-1.1-0.9-1.6c0-0.1-0.1-0.2-0.2-0.2
			C25.1,14.2,25.1,13.7,25,13.2z"/>
		<path id="XMLID_90_" class="st4" d="M14.1,26.6c-0.1-0.1-0.2,0-0.3-0.1C14,26,14,25.6,14,25.1c0.4,0,0.8,0,1.3,0.1
			c0,0.4,0,0.8,0,1.1c0,0.1,0,0.3,0.1,0.3C14.9,26.6,14.5,26.6,14.1,26.6z"/>
		<path id="XMLID_89_" class="st5" d="M3.6,16.6c-0.1-0.2,0-0.4-0.1-0.6c0-0.2,0-0.3,0-0.5C4,15.3,4.4,15,5,14.9c0,0.4,0,0.8,0,1.2
			c-0.2,0.1-0.4,0.2-0.6,0.2C4.1,16.4,3.9,16.6,3.6,16.6z"/>
		<path id="XMLID_88_" class="st6" d="M3.5,14.1c0.1-0.3,0.1-0.6,0.1-0.9c0.1,0,0.2,0,0.3-0.1c0.4-0.1,0.8-0.3,1.2-0.3
			c-0.1,0.3-0.1,0.7-0.2,1c0,0-0.1,0-0.1,0C4.4,14,4,14.2,3.5,14.4C3.5,14.3,3.5,14.2,3.5,14.1z"/>
		<path id="XMLID_87_" class="st7" d="M3.5,14.4C4,14.2,4.4,14,4.9,13.9c0,0,0.1,0,0.1,0c0,0.3,0,0.7-0.1,1c-0.5,0.1-1,0.3-1.4,0.6
			C3.5,15.1,3.5,14.7,3.5,14.4z"/>
		<path id="XMLID_86_" class="st8" d="M15.3,26.6c-0.2-0.1-0.1-0.2-0.1-0.3c0.1-0.4,0.1-0.7,0-1.1c0.2,0,0.5,0,0.7,0
			c0,0.5,0,1,0,1.4c0,0,0,0,0,0C15.7,26.6,15.5,26.6,15.3,26.6z"/>
		<path id="XMLID_85_" class="st9" d="M23,23.4c-0.4,0.4-0.9,0.8-1.4,1.2c-0.1,0-0.1-0.1-0.1-0.2c0-0.4-0.1-0.9-0.2-1.3
			c0.5-0.4,0.9-0.8,1.3-1.3c0,0,0,0.1,0.1,0.1C22.8,22.4,22.9,22.9,23,23.4z"/>
		<path id="XMLID_84_" class="st10" d="M26.2,18c-0.1,0.5-0.3,1-0.5,1.4c-0.1,0-0.1-0.1-0.2-0.2c-0.2-0.5-0.4-0.9-0.6-1.4
			c0-0.1-0.1-0.2-0.2-0.2c0.1-0.5,0.2-1.1,0.3-1.7c0.1,0,0.2,0.1,0.2,0.2c0.2,0.5,0.5,1,0.7,1.5C26.1,17.8,26.1,17.9,26.2,18z"/>
		<path id="XMLID_83_" class="st5" d="M19.7,25.6c-0.5,0.2-0.9,0.4-1.4,0.5c0-0.5,0-1,0-1.5c0.5-0.2,0.9-0.4,1.4-0.6
			C19.7,24.6,19.7,25.1,19.7,25.6z"/>
		<path id="XMLID_82_" class="st11" d="M26.2,18c-0.1,0-0.1-0.1-0.2-0.2c-0.2-0.5-0.5-1-0.7-1.5c0-0.1-0.1-0.2-0.2-0.2
			c0-0.5,0-0.9,0-1.4c0.1,0,0.1,0.1,0.2,0.2c0.3,0.5,0.6,1.1,0.9,1.6c0,0.1,0.1,0.2,0.2,0.2C26.4,17.1,26.3,17.5,26.2,18z"/>
		<path id="XMLID_81_" class="st12" d="M24.8,17.7c0.1,0,0.1,0.1,0.2,0.2c0.2,0.4,0.4,0.9,0.6,1.4c0,0.1,0,0.2,0.2,0.2
			c-0.1,0.4-0.3,0.7-0.5,1.1c0,0.1-0.1,0.1-0.1,0.2c-0.2-0.5-0.4-1.1-0.6-1.6c0-0.1,0-0.2-0.1-0.2C24.5,18.5,24.6,18.1,24.8,17.7z"
			/>
		<path id="XMLID_80_" class="st13" d="M24.4,19c0.1,0,0.1,0.1,0.1,0.2c0.2,0.5,0.4,1.1,0.6,1.6c-0.2,0.4-0.4,0.7-0.6,1
			c-0.2-0.2-0.1-0.5-0.2-0.7c-0.1-0.3-0.1-0.7-0.4-1C24,19.7,24.2,19.3,24.4,19z"/>
		<path id="XMLID_79_" class="st14" d="M23.8,20c0.2,0.3,0.2,0.7,0.4,1c0.1,0.2,0.1,0.5,0.2,0.7c-0.2,0.3-0.4,0.6-0.7,0.9
			c-0.1,0-0.1-0.1-0.1-0.1c-0.1-0.2-0.1-0.4-0.1-0.6c-0.1-0.3-0.1-0.6-0.3-0.8C23.4,20.6,23.6,20.3,23.8,20z"/>
		<path id="XMLID_78_" class="st15" d="M18.2,24.6c0,0.5,0,1,0,1.5c-0.4,0.1-0.7,0.2-1.1,0.2c0-0.1,0-0.2,0-0.3c0-0.4,0.1-0.8,0-1.1
			C17.5,24.8,17.9,24.7,18.2,24.6z"/>
		<path id="XMLID_77_" class="st16" d="M23.2,20.9c0.2,0.3,0.2,0.6,0.3,0.8c0.1,0.2,0.1,0.4,0.1,0.6c0,0.1,0,0.1,0.1,0.1
			c-0.2,0.3-0.5,0.6-0.8,0.8c-0.1-0.5-0.2-1-0.3-1.5c0,0,0-0.1-0.1-0.1C22.8,21.5,23,21.2,23.2,20.9z"/>
		<path id="XMLID_76_" class="st6" d="M21.3,23c0.1,0.4,0.2,0.9,0.2,1.3c0,0.1,0,0.2,0.1,0.2c-0.3,0.2-0.6,0.4-1,0.6
			c0-0.4-0.1-0.8-0.1-1.2c0-0.1,0-0.2-0.1-0.3C20.6,23.4,21,23.2,21.3,23z"/>
		<path id="XMLID_75_" class="st7" d="M20.3,23.6c0.2,0,0.1,0.2,0.1,0.3c0,0.4,0.1,0.8,0.1,1.2c-0.3,0.2-0.6,0.3-0.9,0.4
			c0-0.5,0-1-0.1-1.5C19.8,23.9,20.1,23.8,20.3,23.6z"/>
		<path id="XMLID_74_" class="st17" d="M15.9,26.5c0-0.5,0.1-0.9,0-1.4c0.2,0,0.4-0.1,0.7-0.1c0,0.5,0,1-0.1,1.4
			C16.3,26.5,16.1,26.5,15.9,26.5z"/>
		<path id="XMLID_73_" class="st18" d="M16.5,26.5c0.1-0.5,0.1-1,0.1-1.4c0.2,0,0.4-0.1,0.5-0.1c0.1,0.4,0,0.8,0,1.1
			c0,0.1,0,0.2,0,0.3C17,26.4,16.7,26.4,16.5,26.5z"/>
		<path id="XMLID_72_" class="st19" d="M10.9,25.8c-0.8-0.3-1.6-0.7-2.4-1.2c-0.5-0.4-1.1-0.8-1.5-1.2C7.3,23.1,7.6,23,7.8,23
			c0.2-0.1,0.5-0.1,0.8-0.2c0.7,0.5,1.4,1,2.2,1.4c-0.1,0.1,0,0.2,0,0.3C11,24.9,11.1,25.4,10.9,25.8z"/>
		<path id="XMLID_71_" class="st20" d="M14,25.1c0,0.5,0,1-0.1,1.4c-0.7-0.1-1.3-0.2-2-0.4c0.1-0.5,0.1-1,0-1.5
			c0.2,0,0.3,0.1,0.5,0.1C12.9,24.9,13.4,25,14,25.1z"/>
		<path id="XMLID_70_" class="st20" d="M6.3,22.5c-0.3-0.3-0.5-0.6-0.8-1c0.4-0.3,0.8-0.5,1.2-0.7c0.3,0.3,0.5,0.7,0.8,1
			c0,0.1-0.1,0.1-0.2,0.1C7,22.1,6.6,22.3,6.3,22.5z"/>
		<path id="XMLID_69_" class="st21" d="M6.3,22.5C6.6,22.3,7,22.1,7.4,22c0.1,0,0.2-0.1,0.2-0.1c0.1,0.1,0.1,0.1,0.2,0.2
			c0.3,0.3,0.6,0.5,0.8,0.8c-0.3,0.1-0.5,0.1-0.8,0.2c-0.3,0.1-0.6,0.1-0.8,0.4C6.8,23.1,6.5,22.8,6.3,22.5z"/>
		<path id="XMLID_68_" class="st22" d="M6.8,20.8c-0.4,0.2-0.9,0.4-1.2,0.7c-0.2-0.3-0.4-0.6-0.6-0.9c0.4-0.3,0.8-0.5,1.2-0.7
			C6.4,20.2,6.6,20.5,6.8,20.8z"/>
		<path id="XMLID_67_" class="st21" d="M11.9,24.6c0.1,0.5,0.1,1,0,1.5c-0.3-0.1-0.6-0.2-0.9-0.3c0.1-0.4,0-0.9-0.1-1.3
			c0-0.1-0.1-0.2,0-0.3C11.2,24.4,11.5,24.5,11.9,24.6z"/>
		<path id="XMLID_66_" class="st4" d="M6.2,19.9c-0.5,0.2-0.9,0.4-1.2,0.7c-0.2-0.3-0.3-0.6-0.5-1c0.4-0.2,0.8-0.5,1.3-0.7
			C5.9,19.3,6,19.6,6.2,19.9z"/>
		<path id="XMLID_65_" class="st18" d="M4,18.2c-0.1-0.3-0.2-0.5-0.2-0.8c0.2,0,0.3-0.1,0.4-0.2c0.3-0.1,0.6-0.3,0.9-0.4
			c0.1,0.2,0.1,0.5,0.2,0.7c-0.1,0-0.2,0.1-0.3,0.1C4.6,17.9,4.3,18,4,18.2z"/>
		<path id="XMLID_64_" class="st8" d="M5.7,19c-0.4,0.2-0.8,0.5-1.3,0.7c-0.1-0.2-0.2-0.5-0.3-0.7c0.4-0.2,0.8-0.5,1.2-0.6
			c0,0,0,0,0.1-0.1C5.6,18.5,5.6,18.7,5.7,19z"/>
		<path id="XMLID_63_" class="st15" d="M5.1,16.8c-0.3,0-0.6,0.3-0.9,0.4c-0.1,0.1-0.3,0.2-0.4,0.2c-0.1-0.3-0.1-0.5-0.1-0.8
			c0.3,0,0.5-0.2,0.8-0.3c0.2-0.1,0.4-0.2,0.6-0.2C5,16.3,5.1,16.6,5.1,16.8z"/>
		<path id="XMLID_62_" class="st17" d="M5.5,18.2C5.4,18.3,5.4,18.3,5.5,18.2c-0.5,0.2-0.8,0.5-1.3,0.7C4.1,18.7,4,18.4,4,18.2
			c0.3-0.2,0.7-0.3,1-0.5c0.1,0,0.2-0.1,0.3-0.1C5.3,17.8,5.4,18,5.5,18.2z"/>
		<path id="XMLID_61_" class="st23" d="M21.9,7.6c0.2,0,0.3,0.1,0.4,0.1c1,0.7,1.9,1.6,2.7,2.5c0.3,0.3,0.5,0.6,0.7,0.8
			c0.1,0.1,0.1,0.2,0.3,0.2c0.2,0.5,0.3,1,0.4,1.5c-0.2,0-0.3-0.2-0.3-0.4c-0.6-0.8-1.2-1.6-2-2.3c0,0-0.1-0.2-0.2-0.1
			c-0.2-0.2-0.3-0.5-0.5-0.7C22.9,8.7,22.4,8.1,21.9,7.6z"/>
		<path id="XMLID_60_" class="st24" d="M24.1,7.9c-0.2-0.1-0.4-0.2-0.5-0.4c-1-0.9-2.2-1.6-3.3-2.3c-0.7-0.4-1.5-0.8-2.3-1.2
			c-0.1,0-0.2-0.1-0.2-0.2c1.9,0.5,3.6,1.4,5.1,2.7C23.3,6.9,23.7,7.4,24.1,7.9z"/>
		<path id="XMLID_59_" class="st25" d="M23.8,10.1c0.1-0.1,0.2,0,0.2,0.1c0.7,0.7,1.4,1.5,2,2.3c0.1,0.1,0.2,0.3,0.3,0.4
			c0.1,0.4,0.2,0.8,0.2,1.2c-0.1,0-0.2-0.1-0.2-0.2c-0.5-0.7-1-1.4-1.5-2.1c-0.1-0.1-0.1-0.2-0.3-0.2C24.3,11.1,24.1,10.6,23.8,10.1
			z"/>
		<path id="XMLID_58_" class="st25" d="M11,4.2c0.5-0.2,0.9-0.3,1.4-0.4c0.1,0.1,0.2,0.1,0.3,0.1c1,0.2,2,0.5,3,0.8
			c0.1,0,0.3,0,0.4,0.2c-0.7,0-1.4-0.1-2.1,0c0-0.1-0.1-0.1-0.2-0.1c-0.7-0.2-1.5-0.3-2.2-0.5C11.4,4.4,11.2,4.5,11,4.2z"/>
		<path id="XMLID_57_" class="st23" d="M16.1,5c-0.1-0.2-0.2-0.2-0.4-0.2c-1-0.3-2-0.6-3-0.8c-0.1,0-0.2,0-0.3-0.1
			c0.4-0.1,0.8-0.2,1.2-0.2c0.1,0.1,0.2,0.1,0.4,0.2c1.5,0.4,2.9,0.9,4.3,1.6c0.1,0,0.2,0.1,0.2,0.2c-0.1,0-0.3-0.1-0.4-0.1
			C17.4,5.2,16.7,5.1,16.1,5z"/>
		<path id="XMLID_56_" class="st2" d="M11,4.2c0.1,0.2,0.4,0.1,0.6,0.2c0.8,0.1,1.5,0.3,2.2,0.5c0.1,0,0.2,0,0.2,0.1
			c-0.6,0.1-1.1,0.2-1.7,0.3c0-0.1-0.1-0.1-0.2-0.1c-0.5-0.1-1-0.1-1.4-0.2c-0.3,0-0.7,0-1-0.1C10.1,4.6,10.6,4.4,11,4.2z"/>
		<path id="XMLID_55_" class="st10" d="M6.5,7.3c0.3-0.4,0.7-0.7,1.1-1c0.1,0.1,0.2,0.1,0.3,0.1c0.5,0,1,0,1.4,0
			c0.2,0,0.3,0,0.5,0.1C9.7,6.5,9.6,6.5,9.6,6.6c-0.3,0.2-0.7,0.5-1,0.7C8.5,7.2,8.4,7.2,8.3,7.2C7.7,7.2,7.1,7.3,6.5,7.3z"/>
		<path id="XMLID_54_" class="st3" d="M9.7,4.9C10,5,10.4,5,10.7,5c0.5,0.1,1,0.1,1.4,0.2c0.1,0,0.2,0,0.2,0.1
			c-0.5,0.2-0.9,0.3-1.4,0.5c0-0.1-0.1-0.1-0.2-0.1c-0.6-0.1-1.3-0.1-1.9-0.1c-0.1,0-0.2,0-0.3-0.1C8.9,5.3,9.3,5,9.7,4.9z"/>
		<path id="XMLID_53_" class="st11" d="M8.5,5.5c0.1,0,0.2,0.1,0.3,0.1c0.6,0,1.3,0.1,1.9,0.1c0.1,0,0.2,0,0.2,0.1
			C10.5,6,10.2,6.2,9.8,6.4C9.7,6.3,9.5,6.3,9.3,6.3c-0.5,0-1,0-1.4,0c-0.1,0-0.2,0-0.3-0.1C7.9,6,8.2,5.7,8.5,5.5z"/>
		<path id="XMLID_52_" class="st12" d="M6.5,7.3c0.6,0,1.2-0.1,1.8-0.1c0.1,0,0.2,0,0.3,0.1C8.3,7.6,8,7.8,7.7,8.1
			c-0.3-0.1-0.6,0-0.9,0c-0.3,0-0.7,0.1-1,0.1C6,7.9,6.2,7.6,6.5,7.3z"/>
		<path id="XMLID_51_" class="st13" d="M5.8,8.2c0.3,0,0.7-0.1,1-0.1c0.3,0,0.6-0.1,0.9,0C7.5,8.4,7.2,8.7,6.9,9
			C6.4,9,5.9,9.1,5.3,9.2c-0.1,0-0.1,0.1-0.2,0C5.3,8.8,5.5,8.5,5.8,8.2z"/>
		<path id="XMLID_50_" class="st14" d="M5.1,9.2c0.1,0.1,0.1,0,0.2,0C5.9,9.1,6.4,9,6.9,9C6.7,9.3,6.5,9.6,6.3,10
			C6.1,9.9,6,10,5.8,10c-0.4,0-0.8,0.2-1.2,0.2C4.7,9.9,4.9,9.5,5.1,9.2z"/>
		<path id="XMLID_49_" class="st16" d="M4.6,10.2c0.4,0,0.8-0.2,1.2-0.2C6,10,6.1,9.9,6.3,10c-0.2,0.3-0.3,0.6-0.5,0.9
			c-0.2,0-0.5,0.1-0.7,0.1c-0.3,0.1-0.6,0.2-0.9,0.2C4.3,10.9,4.4,10.6,4.6,10.2z"/>
		<path id="XMLID_48_" class="st9" d="M5.2,12.8c-0.4,0-0.8,0.2-1.2,0.3c-0.1,0-0.2,0.1-0.3,0.1c0-0.3,0.1-0.7,0.2-1
			c0.2,0,0.3-0.1,0.5-0.1c0.4-0.1,0.7-0.3,1.1-0.2C5.4,12.2,5.3,12.5,5.2,12.8z"/>
		<path id="XMLID_47_" class="st26" d="M5.4,11.9c-0.4,0-0.7,0.1-1.1,0.2c-0.2,0-0.3,0.1-0.5,0.1c0.1-0.3,0.2-0.7,0.3-1
			c0.3,0,0.6-0.1,0.9-0.2c0.2,0,0.5-0.1,0.7-0.1C5.7,11.2,5.6,11.6,5.4,11.9z"/>
		<path id="XMLID_46_" class="st10" d="M15.3,8.6c0.7,0,1.4,0,2.2,0c0,0.1,0.1,0.1,0.1,0.1C17.8,8.8,18,8.9,18.1,9
			c1.1,0.7,2.2,1.4,3.2,2.4c0.1,0.1,0.1,0.1,0.2,0.1c0,0.4,0,0.8,0,1.2c-0.3-0.2-0.5-0.5-0.8-0.7c-0.2-0.2-0.4-0.4-0.6-0.5
			c-0.1-1-0.6-1.5-1.6-1.5c-0.2,0-0.4,0-0.7,0c0-0.1-0.1-0.2-0.2-0.2c-0.6-0.4-1.3-0.7-1.9-1C15.5,8.7,15.4,8.7,15.3,8.6z"/>
		<path id="XMLID_45_" class="st13" d="M9.9,9c0.4-0.3,0.9-0.4,1.3-0.4c0.4,0,0.7,0,1.1,0c0.1,0.1,0.2,0.1,0.4,0.2
			c1.1,0.3,2.1,0.7,3.1,1.1c0.1,0,0.1,0.1,0.1,0.1c-0.7,0-1.5,0-2.2,0c-0.1-0.2-0.2-0.2-0.3-0.2c-1-0.3-2.1-0.6-3.2-0.7
			C10.1,9.1,10,9.2,9.9,9z"/>
		<path id="XMLID_44_" class="st22" d="M13.2,21.5c-0.5,0-0.9,0-1.4,0c0-0.1,0-0.1-0.1-0.1c-0.4-0.3-0.9-0.6-1.3-0.8
			c-0.4-0.2-0.9-0.3-1.3-0.3c-0.2-0.3-0.3-0.6-0.4-0.9c0.3,0,0.5,0.1,0.8,0.1c0.3,0,0.6,0.2,0.9,0.1c0.4,0.4,0.8,0.5,1.4,0.5
			c0,0.1,0,0.1,0.1,0.1c0.3,0.2,0.6,0.5,0.9,0.7C12.9,21.1,13.1,21.3,13.2,21.5z"/>
		<path id="XMLID_43_" class="st12" d="M15.9,10c0-0.1-0.1-0.1-0.1-0.1c-1-0.5-2-0.9-3.1-1.1c-0.1,0-0.3,0-0.4-0.2c1,0,2,0,3,0
			c0.1,0.2,0.2,0.2,0.4,0.2c0.7,0.3,1.3,0.6,1.9,1c0.1,0,0.2,0.1,0.2,0.2C17.2,10,16.6,10,15.9,10z"/>
		<path id="XMLID_42_" class="st11" d="M21.5,11.5c-0.1,0-0.1,0-0.2-0.1c-1-0.9-2-1.7-3.2-2.4c-0.2-0.1-0.4-0.2-0.5-0.3
			c-0.1,0-0.1-0.1-0.1-0.1c0.6,0,1.1-0.1,1.7,0c0,0.1,0.1,0.2,0.2,0.2c0.4,0.3,0.8,0.6,1.2,0.9c0.2,0.2,0.4,0.4,0.7,0.4
			c0.2,0.3,0.3,0.7,0.3,1.1C21.5,11.3,21.6,11.4,21.5,11.5z"/>
		<path id="XMLID_41_" class="st26" d="M21.5,17.1c0,0.7,0.1,1.4,0,2.1c-0.2,0-0.2-0.1-0.2-0.3c-0.2-0.4-0.4-0.8-0.7-1.2
			c-0.1-0.2-0.2-0.4-0.4-0.5c0-0.6,0-1.2,0-1.8c0.1,0,0.1,0.1,0.2,0.1c0.4,0.5,0.7,0.9,1.1,1.4C21.4,17,21.4,17.1,21.5,17.1z"/>
		<path id="XMLID_40_" class="st14" d="M9.9,9c0,0.2,0.2,0.1,0.3,0.1c1.1,0.1,2.1,0.4,3.2,0.7c0.1,0,0.3,0,0.3,0.2c-0.7,0-1.3,0-2,0
			c-0.3,0-0.6,0-0.8,0.1c0-0.1-0.1-0.1-0.2-0.1c-0.4,0-0.7-0.1-1.1-0.1c-0.2,0-0.3,0-0.5-0.1C9.3,9.5,9.6,9.2,9.9,9z"/>
		<path id="XMLID_39_" class="st14" d="M21.5,17.1c-0.1,0-0.1-0.1-0.2-0.2c-0.3-0.5-0.7-1-1.1-1.4c0-0.1-0.1-0.1-0.2-0.1
			c0-0.5,0-1.1,0-1.6c0.1,0,0.1,0,0.2,0.1c0.3,0.4,0.7,0.8,1,1.2c0.1,0.1,0.1,0.1,0.2,0.2C21.5,15.9,21.5,16.5,21.5,17.1z"/>
		<path id="XMLID_38_" class="st9" d="M20.1,17.2c0.2,0.1,0.3,0.3,0.4,0.5c0.3,0.4,0.5,0.8,0.7,1.2c0,0.1,0.1,0.2,0.2,0.3
			c-0.1,0.5-0.3,0.9-0.6,1.2c-0.2-0.4-0.4-0.9-0.6-1.3c0-0.1-0.1-0.2-0.2-0.2C20.1,18.3,20.1,17.7,20.1,17.2z"/>
		<path id="XMLID_37_" class="st7" d="M8.6,14.4c0-0.5,0-0.9,0-1.4c0.5,0,1,0,1.4,0.1c0,0.5,0,0.9,0,1.4C9.5,14.5,9,14.4,8.6,14.4z"
			/>
		<path id="XMLID_36_" class="st13" d="M21.5,15.2c-0.1,0-0.2-0.1-0.2-0.2c-0.3-0.4-0.7-0.8-1-1.2c0-0.1-0.1-0.1-0.2-0.1
			c0-0.4,0-0.8,0-1.3c0.1,0,0.2,0.1,0.2,0.1c0.3,0.4,0.7,0.7,1,1.1c0,0.1,0.1,0.1,0.2,0.1C21.5,14.3,21.5,14.7,21.5,15.2z"/>
		<path id="XMLID_35_" class="st18" d="M16.9,21.5c-0.4,0-0.8,0-1.3,0c-0.1-0.3-0.3-0.5-0.5-0.8c-0.1-0.2-0.3-0.4-0.4-0.6
			c0.5,0,0.9,0,1.4,0c0,0,0,0.1,0,0.1C16.4,20.6,16.7,21,16.9,21.5z"/>
		<path id="XMLID_34_" class="st27" d="M10,13.2c-0.5,0-0.9-0.1-1.4-0.1c0-0.4,0-0.9,0-1.3c0.5,0,1,0,1.4,0.1
			C10,12.3,10,12.7,10,13.2z"/>
		<path id="XMLID_33_" class="st4" d="M13.2,21.5c-0.1-0.2-0.2-0.4-0.4-0.6c-0.3-0.3-0.6-0.5-0.9-0.7c-0.1,0-0.1-0.1-0.1-0.1
			c0.5,0,1,0,1.4,0c0,0.1,0,0.1,0.1,0.1c0.2,0.2,0.4,0.4,0.6,0.6c0.2,0.2,0.4,0.4,0.4,0.6C13.9,21.5,13.5,21.5,13.2,21.5z"/>
		<path id="XMLID_31_" class="st5" d="M8.6,14.4c0.5,0,1,0.1,1.4,0.1c0,0.4,0,0.8,0,1.2c-0.5,0-0.9-0.1-1.4-0.1
			C8.6,15.2,8.6,14.8,8.6,14.4z"/>
		<path id="XMLID_30_" class="st5" d="M18.7,21.5c-0.4,0-0.8,0-1.1,0c-0.1-0.3-0.2-0.6-0.4-0.8c-0.1-0.2-0.3-0.4-0.3-0.6
			c0.4,0,0.8,0,1.3,0c0,0.2,0.2,0.4,0.3,0.6C18.5,21,18.7,21.2,18.7,21.5z"/>
		<path id="XMLID_29_" class="st12" d="M21.5,13.8c-0.1,0-0.1,0-0.2-0.1c-0.3-0.4-0.7-0.7-1-1.1c-0.1-0.1-0.1-0.1-0.2-0.1
			c0-0.3,0-0.7,0-1c0.3,0.1,0.4,0.3,0.6,0.5c0.3,0.2,0.5,0.5,0.8,0.7C21.5,13,21.5,13.4,21.5,13.8z"/>
		<path id="XMLID_28_" class="st9" d="M10,11.8c-0.5-0.1-0.9-0.1-1.4-0.1c0-0.4,0-0.7,0.1-1.1c0.4,0,0.9,0.1,1.3,0.1
			c0.1,0,0.1,0,0.1,0.1C10,11.2,10,11.5,10,11.8z"/>
		<path id="XMLID_27_" class="st16" d="M10.1,10.9c0-0.1-0.1-0.1-0.1-0.1c-0.4,0-0.9-0.1-1.3-0.1c0.1-0.3,0.2-0.6,0.4-0.9
			c0.2,0.1,0.3,0.1,0.5,0.1c0.4,0,0.7,0.1,1.1,0.1c0.1,0,0.2,0,0.2,0.1C10.6,10.3,10.3,10.5,10.1,10.9z"/>
		<path id="XMLID_26_" class="st20" d="M9.1,20.3c0.5,0,0.9,0.1,1.3,0.3c0.5,0.2,0.9,0.4,1.3,0.8c0.1,0,0.1,0.1,0.1,0.1
			C10.7,21.6,9.7,21.2,9.1,20.3z"/>
		<path id="XMLID_25_" class="st4" d="M10.3,19.6c-0.3,0-0.6-0.1-0.9-0.1c-0.3,0-0.5-0.1-0.8-0.1c-0.1-0.3-0.1-0.6-0.1-0.9
			c0.5,0.1,1,0.1,1.4,0.2C10,19,10.1,19.3,10.3,19.6z"/>
		<path id="XMLID_24_" class="st7" d="M18.7,21.5c0-0.3-0.2-0.5-0.3-0.8c-0.1-0.2-0.2-0.4-0.3-0.6c0.3,0,0.6,0,0.9-0.1
			c0.2,0.4,0.4,0.9,0.5,1.3C19.3,21.5,19,21.5,18.7,21.5z"/>
		<path id="XMLID_23_" class="st27" d="M20.1,18.9c0.1,0,0.2,0.1,0.2,0.2c0.2,0.4,0.4,0.9,0.6,1.3c-0.2,0.2-0.4,0.4-0.6,0.6
			c-0.2-0.4-0.4-0.9-0.6-1.3C19.9,19.4,20,19.2,20.1,18.9z"/>
		<path id="XMLID_22_" class="st8" d="M14.2,21.5c0-0.3-0.3-0.4-0.4-0.6c-0.2-0.2-0.4-0.4-0.6-0.6c0,0-0.1-0.1-0.1-0.1
			c0.3,0,0.6,0,0.9,0c0.1,0.1,0.2,0.2,0.3,0.4c0.3,0.3,0.6,0.7,0.7,1.1C14.8,21.5,14.5,21.5,14.2,21.5z"/>
		<path id="XMLID_21_" class="st15" d="M8.6,15.6c0.5,0,0.9,0.1,1.4,0.1c0,0.3,0,0.5,0,0.8c-0.5-0.1-0.9-0.1-1.4-0.1
			C8.6,16.1,8.6,15.9,8.6,15.6z"/>
		<path id="XMLID_20_" class="st18" d="M8.6,16.4c0.5,0,1,0.1,1.4,0.1c0,0.3,0,0.5,0,0.8c-0.5-0.1-0.9-0.1-1.4-0.1
			C8.6,16.9,8.6,16.7,8.6,16.4z"/>
		<path id="XMLID_19_" class="st6" d="M19.7,19.7c0.2,0.4,0.4,0.9,0.6,1.3c-0.2,0.2-0.4,0.3-0.7,0.4c-0.2-0.4-0.4-0.9-0.5-1.3
			C19.3,19.9,19.5,19.8,19.7,19.7z"/>
		<path id="XMLID_18_" class="st15" d="M16.9,20.1c0.1,0.2,0.2,0.4,0.3,0.6c0.1,0.3,0.3,0.5,0.4,0.8c-0.2,0-0.5,0-0.7,0
			c-0.2-0.5-0.5-0.9-0.7-1.3c0,0,0-0.1,0-0.1C16.4,20.1,16.6,20.1,16.9,20.1z"/>
		<path id="XMLID_17_" class="st8" d="M10,18.6c-0.5-0.1-1-0.1-1.4-0.2c0-0.2,0-0.4,0-0.6c0.5,0,1,0.1,1.4,0.1
			C10,18.2,10,18.4,10,18.6z"/>
		<path id="XMLID_16_" class="st17" d="M10,17.9c-0.5,0-1-0.1-1.4-0.1c0-0.2,0-0.4,0-0.6c0.5,0,1,0.1,1.4,0.1
			C10,17.5,10,17.7,10,17.9z"/>
		<path id="XMLID_15_" class="st17" d="M15,21.5c-0.2-0.4-0.5-0.7-0.7-1.1c-0.1-0.1-0.2-0.2-0.3-0.4c0.2,0,0.5,0,0.7,0
			c0.1,0.2,0.3,0.4,0.4,0.6c0.2,0.3,0.4,0.5,0.5,0.8C15.4,21.5,15.2,21.5,15,21.5z"/>
		<path id="XMLID_14_" class="st3" d="M21.2,10.1c-0.3-0.1-0.5-0.3-0.7-0.4c-0.4-0.3-0.8-0.6-1.2-0.9c-0.1-0.1-0.2-0.1-0.2-0.2
			C20.1,8.8,20.8,9.3,21.2,10.1z"/>
		<path id="XMLID_13_" class="st5" d="M16.4,17.5c-0.4,0.3-0.9,0.4-1.4,0.4c0-0.1-0.1-0.1-0.1-0.2c-0.4-0.3-0.9-0.7-1.3-0.9
			c-0.4-0.2-0.7-0.4-1.1-0.5c-0.2-0.4-0.3-0.9-0.3-1.4c0.1,0,0.2,0,0.2,0.1c0.4,0.1,0.8,0.4,1.2,0.5c0.5,0.8,0.9,1.1,1.7,1
			c0,0.1,0.1,0.2,0.2,0.3C15.9,17,16.2,17.2,16.4,17.5z"/>
		<path id="XMLID_12_" class="st9" d="M13.1,12.9c0.3-0.3,0.7-0.5,1.1-0.6c0,0.1,0.1,0.1,0.2,0.1c0.4,0.1,0.7,0.3,1,0.5
			c0.6,0.3,1.2,0.7,1.7,1.1c0.2,0.2,0.5,0.4,0.7,0.6c0.1,0.4,0,0.8-0.1,1.2c-0.4-0.4-0.8-0.7-1.1-1c-0.1,0-0.1-0.1-0.2-0.1
			c-0.1-0.5-0.4-0.9-1-1.1c-0.3-0.1-0.6-0.1-0.9,0C14.2,13.3,13.6,13.1,13.1,12.9z"/>
		<path id="XMLID_11_" class="st26" d="M17.9,14.6c-0.3-0.1-0.5-0.4-0.7-0.6c-0.6-0.4-1.1-0.8-1.7-1.1c-0.3-0.2-0.7-0.4-1-0.5
			c-0.1,0-0.1-0.1-0.2-0.1c1.1-0.4,2.5,0.1,3.2,1.1C17.7,13.8,17.9,14.2,17.9,14.6z"/>
		<circle id="XMLID_10_" class="st13" cx="18.3" cy="11.8" r="0.9"/>
		<path id="XMLID_9_" class="st7" d="M16.4,17.5c-0.2-0.3-0.5-0.6-0.9-0.8c-0.1-0.1-0.2-0.1-0.2-0.3c0.4-0.1,0.7-0.3,1-0.7
			c0.2,0.2,0.5,0.5,0.7,0.7c0.1,0.1,0.2,0.3,0.4,0.3C17.1,17.1,16.9,17.4,16.4,17.5z"/>
		<path id="XMLID_8_" class="st7" d="M13.7,15.5c-0.4-0.2-0.8-0.4-1.2-0.5c-0.1,0-0.2-0.1-0.2-0.1c0-0.4,0.1-0.8,0.3-1.1
			c0.1,0.1,0.3,0.1,0.4,0.2c0.3,0.1,0.6,0.2,0.9,0.4C13.6,14.7,13.6,15.1,13.7,15.5z"/>
		<path id="XMLID_7_" class="st27" d="M13.7,14.4c-0.3-0.2-0.6-0.3-0.9-0.4c-0.1-0.1-0.3-0.1-0.4-0.2c0.1-0.3,0.4-0.6,0.6-0.8
			c0.5,0.2,1,0.4,1.5,0.7C14.2,13.8,14,14.1,13.7,14.4z"/>
		<path id="XMLID_6_" class="st27" d="M17.4,16.7c-0.2,0-0.2-0.2-0.4-0.3c-0.3-0.2-0.5-0.4-0.7-0.7c0.1-0.3,0.2-0.6,0.2-1
			c0.1,0,0.1,0,0.2,0.1c0.4,0.3,0.8,0.6,1.1,1C17.7,16.1,17.6,16.5,17.4,16.7z"/>
		<path id="XMLID_5_" class="st15" d="M12.4,16.3c0.4,0.1,0.8,0.3,1.1,0.5c0.5,0.3,0.9,0.6,1.3,0.9c0.1,0,0.1,0.1,0.1,0.2
			C14,18,12.9,17.3,12.4,16.3z"/>
	</g>
</g>
</svg>
