<?xml version="1.0" encoding="utf-8"?>
<!-- Generator: Adobe Illustrator 19.0.0, SVG Export Plug-In . SVG Version: 6.00 Build 0)  -->
<svg version="1.1" id="Layer_1" xmlns="http://www.w3.org/2000/svg" xmlns:xlink="http://www.w3.org/1999/xlink" x="0px" y="0px"
	 viewBox="0 0 50 50" style="enable-background:new 0 0 50 50;" xml:space="preserve">
<style type="text/css">
	.st0{fill:#00C7FF;}
	.st1{fill-rule:evenodd;clip-rule:evenodd;fill:#00C7FF;}
</style>
<g id="XMLID_4_">
	<g id="XMLID_8_">
		<path id="XMLID_9_" class="st0" d="M45.1,18.4c2.7,8.4-0.3,17.6-7.4,22.8c-7.2,5.2-16.9,5.2-24,0C6.5,36,3.5,26.8,6.3,18.4
			C9,9.9,16.9,4.2,25.7,4.2C34.5,4.2,42.4,9.9,45.1,18.4z M25.7,6.1c-8.1,0-15.2,5.2-17.7,12.8c-2.5,7.7,0.2,16,6.8,20.8
			c6.5,4.7,15.3,4.7,21.8,0c6.5-4.7,9.2-13.1,6.8-20.8C40.9,11.3,33.8,6.1,25.7,6.1z"/>
	</g>
	<path id="XMLID_10_" class="st1" d="M22.7,29.1c-2.1-0.1-3.3-1.5-3.7-2.7c0.6,0.1,1.1,0.1,1.7,0c0,0,0,0,0.1,0
		c-1.1-0.3-2-0.9-2.6-1.8c-0.4-0.6-0.6-1.3-0.6-2.1c0.6,0.3,1.1,0.5,1.8,0.5c-0.8-0.6-1.4-1.4-1.6-2.4c-0.2-1-0.1-2,0.4-2.9
		c2.1,2.5,4.9,3.9,8.2,4.1c0-0.2,0-0.3-0.1-0.4c-0.1-0.9,0.1-1.8,0.6-2.6c0.6-1,1.5-1.6,2.7-1.8C30.8,16.7,32,17,33,18
		c0.1,0.1,0.1,0.1,0.2,0.1c0.8-0.2,1.6-0.5,2.3-0.9c0,0,0,0,0.1,0c0,0,0,0,0,0c-0.3,0.9-0.9,1.6-1.7,2.2c0.8-0.1,1.5-0.3,2.2-0.6
		c0,0,0,0,0,0c-0.2,0.2-0.3,0.4-0.5,0.6c-0.4,0.5-0.9,1-1.4,1.4c0,0-0.1,0.1-0.1,0.1c0,0.6,0,1.2-0.1,1.8c-0.2,1.2-0.5,2.4-1,3.5
		c-0.5,1.2-1.2,2.2-2.1,3.1c-1.5,1.6-3.3,2.6-5.4,3c-0.7,0.2-1.5,0.2-2.2,0.3c-2.3,0.1-4.4-0.5-6.3-1.7c0,0,0,0-0.1-0.1
		c1.4,0.1,2.7,0,4-0.5C21.5,29.9,22.1,29.6,22.7,29.1z"/>
</g>
</svg>
