<?xml version="1.0" encoding="utf-8"?>
<!-- Generator: Adobe Illustrator 19.0.0, SVG Export Plug-In . SVG Version: 6.00 Build 0)  -->
<svg version="1.1" id="Layer_1" xmlns="http://www.w3.org/2000/svg" xmlns:xlink="http://www.w3.org/1999/xlink" x="0px" y="0px"
	 viewBox="0 0 30 30" style="enable-background:new 0 0 30 30;" xml:space="preserve">
<style type="text/css">
	.st0{fill:#FD3832;}
	.st1{fill-rule:evenodd;clip-rule:evenodd;fill:#FD3832;}
</style>
<g id="XMLID_345_">
	<g id="XMLID_163_">
		<path id="XMLID_164_" class="st0" d="M26.9,10.8c1.6,4.9-0.2,10.4-4.4,13.4c-4.2,3.1-9.9,3.1-14.1,0c-4.2-3.1-6-8.5-4.4-13.4
			s6.2-8.3,11.4-8.3C20.7,2.5,25.3,5.8,26.9,10.8z M15.5,3.6c-4.7,0-8.9,3-10.4,7.5c-1.5,4.5,0.1,9.4,4,12.2c3.8,2.8,9,2.8,12.8,0
			c3.8-2.8,5.4-7.7,4-12.2C24.4,6.6,20.2,3.6,15.5,3.6z"/>
	</g>
	<g id="XMLID_165_">
		<path id="XMLID_166_" class="st1" d="M11.5,17.8c-0.4-0.1-0.6-0.4-0.8-0.8c-0.3-0.9-0.4-4.8,0.2-5.6c0.2-0.3,0.5-0.4,0.8-0.5
			c1.8-0.2,7.2-0.2,7.8,0.1c0.4,0.1,0.6,0.4,0.8,0.7c0.4,1,0.4,4.5,0,5.4c-0.1,0.3-0.3,0.4-0.6,0.6C19.1,18.1,12.3,18.1,11.5,17.8z
			 M14.3,16c1.1-0.5,2.1-1.1,3.2-1.6c-1.1-0.6-2.1-1.1-3.2-1.6C14.3,13.8,14.3,14.9,14.3,16z"/>
	</g>
</g>
</svg>
