<?xml version="1.0" encoding="utf-8"?>
<!-- Generator: Adobe Illustrator 19.0.0, SVG Export Plug-In . SVG Version: 6.00 Build 0)  -->
<svg version="1.1" id="Layer_1" xmlns="http://www.w3.org/2000/svg" xmlns:xlink="http://www.w3.org/1999/xlink" x="0px" y="0px"
	 viewBox="0 0 612 792" style="enable-background:new 0 0 612 792;" xml:space="preserve">
<style type="text/css">
	.st0{opacity:0.43;}
	.st1{fill:#FEFEFE;}
	.st2{fill:#949494;}
</style>
<g id="XMLID_1_" class="st0">
	<path id="XMLID_20_" class="st1" d="M306.7,483c-95,0-190,0-285,0c0-133.3,0-266.7,0-400c133.3,0,266.7,0,400,0
		c0,37.3,0,74.7,0,112c-1.6-0.4-3.2-0.7-4.7-1.3c-53.3-21.1-106.5-42.3-159.8-63.4c-1.3-0.5-2.7-0.9-4.4-1.5c0,24.7,0,48.8,0,73.5
		c24.7,0,49.1,0,73.6,0c0,20.9,0,41.1,0,62c-24.7,0-49.1,0-74,0c0,58.2,0,115.7,0,173.7c-18.6,0-36.7,0-54.7,0
		c0.6,1.2,1.4,1.6,2.3,2c23.5,9.4,47,18.7,70.5,28.1C282.5,472.9,294.6,478,306.7,483z M116.9,264.2c-0.1,0.3-0.1,0.7-0.2,1
		c24.3,9.7,48.6,19.4,73.8,29.4c0-9.8,0.1-18.8-0.2-27.7c0-0.9-2.4-2.6-3.7-2.6C163.4,264.1,140.2,264.2,116.9,264.2z"/>
	<path id="XMLID_19_" class="st2" d="M306.7,483c-12.1-5-24.2-10.1-36.3-15c-23.5-9.4-47-18.7-70.5-28.1c-0.8-0.3-1.6-0.8-2.3-2
		c18.1,0,36.1,0,54.7,0c0-58,0-115.5,0-173.7c25,0,49.4,0,74,0c0-20.9,0-41.1,0-62c-24.5,0-48.9,0-73.6,0c0-24.7,0-48.8,0-73.5
		c1.7,0.6,3.1,0.9,4.4,1.5c53.3,21.1,106.5,42.3,159.8,63.4c1.5,0.6,3.2,0.9,4.7,1.3c0,96,0,192,0,288C383.3,483,345,483,306.7,483z
		"/>
	<path id="XMLID_18_" class="st2" d="M116.9,264.2c23.3,0,46.5,0,69.7,0.1c1.3,0,3.6,1.6,3.7,2.6c0.3,8.9,0.2,17.8,0.2,27.7
		c-25.1-10-49.4-19.7-73.8-29.4C116.8,264.8,116.8,264.5,116.9,264.2z"/>
</g>
</svg>
